<svg id="Layer_1" data-name="Layer 1" xmlns="http://www.w3.org/2000/svg" viewBox="0 0 496.54 496.34"><defs><style>.cls-1{fill:#231f20;}</style></defs><path d="M496.22,533.88H112.72V150.37H330V94H114.63A58.33,58.33,0,0,0,56.3,152.28V532a58.33,58.33,0,0,0,58.33,58.33H494.32A58.33,58.33,0,0,0,552.64,532V316.58H496.22Z" transform="translate(-56.3 -93.95)"/><path class="cls-1" d="M552.64,94.26V94H494.32a59.71,59.71,0,0,1,6,.31H354.41l56.11,56.11,2.06,2.06L330,235,306.2,258.82,330,282.63l34,33.95,16.19,16.19,16.18-16.19,90.2-90.19,9.68,9.68,56.42,56.42.2.2V94.26Z" transform="translate(-56.3 -93.95)"/></svg>