<svg id="Layer_1" data-name="Layer 1" xmlns="http://www.w3.org/2000/svg" viewBox="0 0 449.07 449.07"><path d="M513.76,337.55h-28.7a187.48,187.48,0,0,0-14-32.19l20.42-20.42a17.62,17.62,0,0,0,0-24.9l-52.74-52.73a17.6,17.6,0,0,0-24.9,0L392.5,228.69a186.32,186.32,0,0,0-31.23-12.76v-24a24,24,0,0,0-24-24H275.5a24,24,0,0,0-24,24V215.7A187.23,187.23,0,0,0,220,228.43L203.07,211.5a23.54,23.54,0,0,0-33.29,0l-44.35,44.35a23.53,23.53,0,0,0,0,33.28l15.74,15.74a187,187,0,0,0-14.23,32.68H99a17.16,17.16,0,0,0-17.16,17.16v75.48A17.15,17.15,0,0,0,99,447.34h25.77a187,187,0,0,0,13.92,35.16L121.24,500a17.6,17.6,0,0,0,0,24.9L174,577.59a17.61,17.61,0,0,0,24.89,0l16.49-16.49a187.59,187.59,0,0,0,36.12,15.2V593a24,24,0,0,0,24,24h61.76a24,24,0,0,0,24-24v-16.9a186.92,186.92,0,0,0,35.86-15.24l12.56,12.56a23.53,23.53,0,0,0,33.28,0L487.32,529a23.53,23.53,0,0,0,0-33.28L473.57,482a186.7,186.7,0,0,0,13.66-34.67h26.53a17.15,17.15,0,0,0,17.15-17.15V354.71A17.15,17.15,0,0,0,513.76,337.55ZM306,536.41A140.41,140.41,0,1,1,446.41,396,140.41,140.41,0,0,1,306,536.41Z" transform="translate(-81.84 -167.91)"/></svg>