<svg id="Layer_1" data-name="Layer 1" xmlns="http://www.w3.org/2000/svg" viewBox="0 0 381.22 460.2"><defs><style>.cls-1{fill:none;}</style></defs><path class="cls-1" d="M300.28,135.58A101.82,101.82,0,0,0,198.57,237.29H402A101.83,101.83,0,0,0,300.28,135.58Z" transform="translate(-107.38 -67.58)"/><path d="M470,237.37v-.08c0-93.58-76.13-169.71-169.71-169.71S130.57,143.71,130.57,237.29h-3a20.21,20.21,0,0,0-20.21,20.21V507.57a20.21,20.21,0,0,0,20.21,20.21h340.8a20.21,20.21,0,0,0,20.21-20.21V257.5A20.2,20.2,0,0,0,470,237.37Zm-132.35,186a32,32,0,0,1-32,32h-12.2a32,32,0,0,1-32-32V348.61a32,32,0,0,1,32-32h12.2a32,32,0,0,1,32,32Zm64.35-186H198.57a101.71,101.71,0,0,1,203.42,0Z" transform="translate(-107.38 -67.58)"/></svg>